<?xml version="1.0" encoding="UTF-8" standalone="no"?>
<!-- Created with Inkscape (http://www.inkscape.org/) -->

<svg
   xmlns:dc="http://purl.org/dc/elements/1.1/"
   xmlns:cc="http://creativecommons.org/ns#"
   xmlns:rdf="http://www.w3.org/1999/02/22-rdf-syntax-ns#"
   xmlns:svg="http://www.w3.org/2000/svg"
   xmlns="http://www.w3.org/2000/svg"
   xmlns:xlink="http://www.w3.org/1999/xlink"
   xmlns:sodipodi="http://sodipodi.sourceforge.net/DTD/sodipodi-0.dtd"
   xmlns:inkscape="http://www.inkscape.org/namespaces/inkscape"
   width="76.691422mm"
   height="50.73436mm"
   viewBox="0 0 271.74126 179.76741"
   id="svg2"
   version="1.1"
   inkscape:version="0.92.2 5c3e80d, 2017-08-06"
   sodipodi:docname="ratcam4.svg">
  <defs
     id="defs4">
    <linearGradient
       inkscape:collect="always"
       id="linearGradient842">
      <stop
         style="stop-color:#060606;stop-opacity:1"
         offset="0"
         id="stop838" />
      <stop
         id="stop858"
         offset="0.69093591"
         style="stop-color:#030303;stop-opacity:1" />
      <stop
         style="stop-color:#555555;stop-opacity:1"
         offset="1"
         id="stop840" />
    </linearGradient>
    <inkscape:path-effect
       effect="envelope"
       id="path-effect4230"
       is_visible="true"
       yy="true"
       xx="false"
       bendpath1="m 387.89857,408.38996 c 8.42741,3.26878 15.64089,8.35847 31.8198,0"
       bendpath2="m 419.71837,408.38996 v 31.81981"
       bendpath3="m 387.89857,440.20977 c 10.79606,2.27352 21.35927,1.75279 31.8198,0"
       bendpath4="m 387.89857,408.38996 v 31.81981"
       bendpath1-nodetypes="cc"
       bendpath3-nodetypes="cc" />
    <radialGradient
       inkscape:collect="always"
       xlink:href="#linearGradient842"
       id="radialGradient844"
       cx="404.00098"
       cy="416.917"
       fx="404.00098"
       fy="416.917"
       r="62.881835"
       gradientUnits="userSpaceOnUse" />
  </defs>
  <sodipodi:namedview
     id="base"
     pagecolor="#ffffff"
     bordercolor="#666666"
     borderopacity="1.0"
     inkscape:pageopacity="0.0"
     inkscape:pageshadow="2"
     inkscape:zoom="2"
     inkscape:cx="142.91879"
     inkscape:cy="106.70595"
     inkscape:document-units="px"
     inkscape:current-layer="layer1"
     showgrid="false"
     inkscape:window-width="1920"
     inkscape:window-height="1035"
     inkscape:window-x="0"
     inkscape:window-y="1"
     inkscape:window-maximized="1"
     fit-margin-top="0"
     fit-margin-left="0"
     fit-margin-right="0"
     fit-margin-bottom="0" />
  <metadata
     id="metadata7">
    <rdf:RDF>
      <cc:Work
         rdf:about="">
        <dc:format>image/svg+xml</dc:format>
        <dc:type
           rdf:resource="http://purl.org/dc/dcmitype/StillImage" />
        <dc:title />
      </cc:Work>
    </rdf:RDF>
  </metadata>
  <g
     inkscape:label="Layer 1"
     inkscape:groupmode="layer"
     id="layer1"
     transform="translate(-268.13043,-316.40777)">
    <path
       style="fill:none;fill-rule:evenodd;stroke:#555555;stroke-width:5.625;stroke-linecap:butt;stroke-linejoin:round;stroke-miterlimit:4;stroke-dasharray:none;stroke-opacity:1"
       d="m 362.31059,353.7407 c 0,0 -13.57728,-46.22065 -35.17857,-31.8198 -16.44024,10.96015 -21.37312,36.60557 -15.55635,50.91169 6.54074,16.08668 19.62221,22.62741 19.62221,22.62741"
       id="path4417"
       inkscape:connector-curvature="0"
       sodipodi:nodetypes="cssc" />
    <path
       sodipodi:nodetypes="cssc"
       inkscape:connector-curvature="0"
       id="path4437"
       d="m 445.69155,353.74069 c 0,0 13.57728,-46.22065 35.17857,-31.8198 16.44024,10.96015 21.37312,36.60557 15.55635,50.91169 -6.54074,16.08668 -19.62221,22.62741 -19.62221,22.62741"
       style="fill:none;fill-rule:evenodd;stroke:#555555;stroke-width:5.625;stroke-linecap:butt;stroke-linejoin:round;stroke-miterlimit:4;stroke-dasharray:none;stroke-opacity:1" />
    <path
       style="fill:none;fill-rule:evenodd;stroke:#555555;stroke-width:5.625;stroke-linecap:round;stroke-linejoin:round;stroke-miterlimit:4;stroke-dasharray:none;stroke-opacity:1"
       d="m 327.93244,342.76249 c 0,0 3.35875,-5.3033 7.60139,-5.12652 4.24265,0.17678 9.19239,3.0052 13.96536,11.13693 4.77297,8.13173 5.02328,10.63448 5.02328,10.63448"
       id="path4429"
       inkscape:connector-curvature="0"
       sodipodi:nodetypes="cssc" />
    <path
       sodipodi:nodetypes="cssc"
       inkscape:connector-curvature="0"
       id="path828"
       d="m 480.06951,342.76249 c 0,0 -3.35875,-5.3033 -7.60139,-5.12652 -4.24265,0.17678 -9.19239,3.0052 -13.96536,11.13693 -4.77297,8.13173 -5.02328,10.63448 -5.02328,10.63448"
       style="fill:none;fill-rule:evenodd;stroke:#555555;stroke-width:5.625;stroke-linecap:round;stroke-linejoin:round;stroke-miterlimit:4;stroke-dasharray:none;stroke-opacity:1" />
    <circle
       style="fill:none;fill-opacity:1;stroke:#878787;stroke-width:5.62500008;stroke-linecap:round;stroke-linejoin:round;stroke-miterlimit:4;stroke-dasharray:none;stroke-dashoffset:0;stroke-opacity:1"
       id="path4136"
       cx="404.00107"
       cy="416.91629"
       r="75.508904" />
    <path
       style="fill:none;fill-rule:evenodd;stroke:#555555;stroke-width:4.6875;stroke-linecap:round;stroke-linejoin:round;stroke-miterlimit:4;stroke-dasharray:none;stroke-opacity:1"
       d="m 380.51386,446.51814 c 0,0 -19.61685,-10.57475 -43.84062,-10.42983 -36.71841,0.21967 -66.1669,8.44975 -66.1669,8.44975"
       id="path4449"
       inkscape:connector-curvature="0"
       sodipodi:nodetypes="csc" />
    <path
       style="fill:none;fill-rule:evenodd;stroke:#555555;stroke-width:4.6875;stroke-linecap:round;stroke-linejoin:round;stroke-miterlimit:4;stroke-dasharray:none;stroke-opacity:1"
       d="m 362.36131,444.53071 c 0,0 -12.4947,-2.59945 -36.61054,1.56066 -18.16951,3.13434 -34.08973,12.02818 -34.08973,12.02818"
       id="path4453"
       inkscape:connector-curvature="0"
       sodipodi:nodetypes="csc" />
    <path
       style="fill:none;fill-rule:evenodd;stroke:#555555;stroke-width:4.6875;stroke-linecap:round;stroke-linejoin:round;stroke-miterlimit:4;stroke-dasharray:none;stroke-opacity:1"
       d="m 377.71169,448.51452 c 0,0 -17.88877,0.008 -39.57985,6.28539 -21.6911,6.27717 -31.57859,16.6233 -31.57859,16.6233"
       id="path4455"
       inkscape:connector-curvature="0"
       sodipodi:nodetypes="csc" />
    <path
       sodipodi:nodetypes="csc"
       inkscape:connector-curvature="0"
       id="path4464"
       d="m 427.48827,446.51814 c 0,0 19.61685,-10.57475 43.84062,-10.42983 36.71841,0.21967 66.1669,8.44975 66.1669,8.44975"
       style="fill:none;fill-rule:evenodd;stroke:#555555;stroke-width:4.6875;stroke-linecap:round;stroke-linejoin:round;stroke-miterlimit:4;stroke-dasharray:none;stroke-opacity:1" />
    <path
       sodipodi:nodetypes="csc"
       inkscape:connector-curvature="0"
       id="path4466"
       d="m 445.64082,444.53071 c 0,0 12.4947,-2.59945 36.61054,1.56066 18.16951,3.13434 34.08973,12.02818 34.08973,12.02818"
       style="fill:none;fill-rule:evenodd;stroke:#555555;stroke-width:4.6875;stroke-linecap:round;stroke-linejoin:round;stroke-miterlimit:4;stroke-dasharray:none;stroke-opacity:1" />
    <path
       sodipodi:nodetypes="csc"
       inkscape:connector-curvature="0"
       id="path4468"
       d="m 430.29044,448.51452 c 0,0 17.88877,0.008 39.57985,6.28539 21.6911,6.27717 31.57859,16.6233 31.57859,16.6233"
       style="fill:none;fill-rule:evenodd;stroke:#555555;stroke-width:4.6875;stroke-linecap:round;stroke-linejoin:round;stroke-miterlimit:4;stroke-dasharray:none;stroke-opacity:1" />
    <path
       style="fill:url(#radialGradient844);fill-opacity:1;stroke:none;stroke-width:1.25;stroke-linecap:round;stroke-linejoin:round;stroke-miterlimit:4;stroke-dasharray:none;stroke-dashoffset:0;stroke-opacity:1"
       d="m 404.00195,354.03516 a 62.881996,62.881996 0 0 0 -62.88281,62.88086 62.881996,62.881996 0 0 0 62.88281,62.88281 62.881996,62.881996 0 0 0 62.88086,-62.88281 62.881996,62.881996 0 0 0 -62.88086,-62.88086 z m -12.88672,10.29101 c 0.75998,-0.0173 1.37778,0.0641 1.83008,0.24414 1.89105,0.75282 1.00427,3.01409 -1.95117,6.64649 -2.75034,3.38031 -7.99186,8.73434 -12.91211,13.95508 -0.82191,0.86254 -1.73666,1.82209 -2.57031,2.69531 l -0.0508,0.0547 c -4.21799,4.37318 -13.51883,14.26115 -15.79688,16.50585 -3.71976,3.62061 -6.06004,5.49394 -7.49609,4.86133 -1.34464,-0.59248 -1.81375,-3.68927 -0.71485,-8.34375 1.22728,-5.36773 4.33365,-12.3152 9.93555,-18.8457 l 0.0488,-0.0547 c 0.79033,-0.92953 1.61805,-1.83585 2.48047,-2.7168 5.2598,-5.4359 11.50145,-9.51457 17.16601,-12.09179 4.19478,-1.90853 7.75132,-2.85831 10.03125,-2.91016 z m 24.89258,0.99024 c 1.2573,0.008 2.78387,0.19923 4.5293,0.61132 5.36773,1.22728 12.3152,4.3356 18.8457,9.9375 l 0.0566,0.0469 c 0.92953,0.79033 1.83585,1.61805 2.7168,2.48047 5.4359,5.2598 9.51458,11.50145 12.0918,17.16601 2.5447,5.59304 3.38613,10.05407 2.66601,11.86329 -0.75282,1.89104 -3.01408,1.00426 -6.64648,-1.95118 -3.38031,-2.75034 -8.73629,-7.99381 -13.95703,-12.91406 -0.86255,-0.82191 -1.82014,-1.73666 -2.69336,-2.57031 l -0.0547,-0.0508 c -4.37319,-4.21799 -14.26311,-13.51883 -16.50781,-15.79688 -3.62061,-3.71976 -5.49199,-6.06004 -4.85938,-7.49609 0.3703,-0.8404 1.717,-1.33907 3.8125,-1.32617 z m -9.9082,75.72656 c 1.62512,0.01 3.23421,0.11766 4.65625,0.41601 3.0364,0.63707 5.35344,2.13121 6.28516,4.90235 l 0.39257,2.01367 c 0.22483,3.14007 -1.12583,6.75405 -3.65429,9.64453 -2.50742,2.86643 -5.74263,4.58623 -8.83008,4.95508 -0.80474,0.0961 -1.61609,0.10618 -2.44141,0.0293 -2.82076,-0.28073 -5.79838,-1.64526 -8.04687,-3.89453 -2.2417,-2.24249 -3.39872,-5.01593 -3.7793,-7.78516 -0.42939,-3.12439 0.11507,-6.02671 2.06641,-7.76563 2.05383,-1.83025 5.13756,-2.10406 8.36523,-2.32617 0.0773,-0.005 0.15527,-0.0107 0.23242,-0.0156 1.48749,-0.0956 3.12879,-0.1836 4.75391,-0.17383 z"
       id="path4138"
       inkscape:connector-curvature="0" />
  </g>
</svg>
