<?xml version="1.0" encoding="UTF-8" standalone="no"?>
<!-- Created with Inkscape (http://www.inkscape.org/) -->

<svg
   xmlns:dc="http://purl.org/dc/elements/1.1/"
   xmlns:cc="http://creativecommons.org/ns#"
   xmlns:rdf="http://www.w3.org/1999/02/22-rdf-syntax-ns#"
   xmlns:svg="http://www.w3.org/2000/svg"
   xmlns="http://www.w3.org/2000/svg"
   xmlns:xlink="http://www.w3.org/1999/xlink"
   xmlns:sodipodi="http://sodipodi.sourceforge.net/DTD/sodipodi-0.dtd"
   xmlns:inkscape="http://www.inkscape.org/namespaces/inkscape"
   width="50mm"
   height="50mm"
   viewBox="0 0 177.16536 177.16535"
   id="svg2"
   version="1.1"
   inkscape:version="0.92.2 5c3e80d, 2017-08-06"
   sodipodi:docname="ratcam-logo.svg">
  <defs
     id="defs4">
    <linearGradient
       inkscape:collect="always"
       id="linearGradient842">
      <stop
         style="stop-color:#060606;stop-opacity:1"
         offset="0"
         id="stop838" />
      <stop
         id="stop858"
         offset="0.69093591"
         style="stop-color:#030303;stop-opacity:1" />
      <stop
         style="stop-color:#555555;stop-opacity:1"
         offset="1"
         id="stop840" />
    </linearGradient>
    <inkscape:path-effect
       effect="envelope"
       id="path-effect4230"
       is_visible="true"
       yy="true"
       xx="false"
       bendpath1="m 387.89857,408.38996 c 8.42741,3.26878 15.64089,8.35847 31.8198,0"
       bendpath2="m 419.71837,408.38996 v 31.81981"
       bendpath3="m 387.89857,440.20977 c 10.79606,2.27352 21.35927,1.75279 31.8198,0"
       bendpath4="m 387.89857,408.38996 v 31.81981"
       bendpath1-nodetypes="cc"
       bendpath3-nodetypes="cc" />
    <radialGradient
       inkscape:collect="always"
       xlink:href="#linearGradient842"
       id="radialGradient844"
       cx="404.00098"
       cy="416.91699"
       fx="404.00098"
       fy="416.91699"
       r="62.881836"
       gradientUnits="userSpaceOnUse"
       gradientTransform="matrix(0.65196339,0,0,0.65196339,93.319203,135.77852)" />
  </defs>
  <sodipodi:namedview
     id="base"
     pagecolor="#ffffff"
     bordercolor="#666666"
     borderopacity="1.0"
     inkscape:pageopacity="0.0"
     inkscape:pageshadow="2"
     inkscape:zoom="2.8284271"
     inkscape:cx="46.77918"
     inkscape:cy="106.70595"
     inkscape:document-units="px"
     inkscape:current-layer="layer1"
     showgrid="false"
     inkscape:window-width="1920"
     inkscape:window-height="1035"
     inkscape:window-x="0"
     inkscape:window-y="1"
     inkscape:window-maximized="1"
     fit-margin-top="0"
     fit-margin-left="0"
     fit-margin-right="0"
     fit-margin-bottom="0"
     showguides="true"
     inkscape:guide-bbox="true"
     inkscape:snap-bbox="true"
     inkscape:object-paths="true"
     inkscape:snap-intersection-paths="true"
     inkscape:snap-smooth-nodes="true"
     inkscape:bbox-paths="true"
     inkscape:bbox-nodes="true"
     inkscape:snap-bbox-edge-midpoints="true"
     inkscape:snap-bbox-midpoints="true" />
  <metadata
     id="metadata7">
    <rdf:RDF>
      <cc:Work
         rdf:about="">
        <dc:format>image/svg+xml</dc:format>
        <dc:type
           rdf:resource="http://purl.org/dc/dcmitype/StillImage" />
        <dc:title></dc:title>
      </cc:Work>
    </rdf:RDF>
  </metadata>
  <g
     inkscape:label="Layer 1"
     inkscape:groupmode="layer"
     id="layer1"
     transform="translate(-268.13043,-319.00983)">
    <path
       style="fill:none;fill-rule:evenodd;stroke:#555555;stroke-width:3.66729403;stroke-linecap:butt;stroke-linejoin:round;stroke-miterlimit:4;stroke-dasharray:none;stroke-opacity:1"
       d="m 329.53244,366.40451 c 0,0 -8.85189,-30.13418 -22.93514,-20.74535 -10.71843,7.14562 -13.93449,23.86549 -10.14217,33.19256 4.26433,10.48793 12.79297,14.75224 12.79297,14.75224"
       id="path4417"
       inkscape:connector-curvature="0"
       sodipodi:nodetypes="cssc" />
    <path
       sodipodi:nodetypes="cssc"
       inkscape:connector-curvature="0"
       id="path4437"
       d="m 383.89378,366.4045 c 0,0 8.85189,-30.13417 22.93514,-20.74535 10.71843,7.14562 13.93449,23.8655 10.14217,33.19256 -4.26433,10.48793 -12.79297,14.75225 -12.79297,14.75225"
       style="fill:none;fill-rule:evenodd;stroke:#555555;stroke-width:3.66729403;stroke-linecap:butt;stroke-linejoin:round;stroke-miterlimit:4;stroke-dasharray:none;stroke-opacity:1" />
    <path
       style="fill:none;fill-rule:evenodd;stroke:#555555;stroke-width:3.66729403;stroke-linecap:round;stroke-linejoin:round;stroke-miterlimit:4;stroke-dasharray:none;stroke-opacity:1"
       d="m 307.11915,359.24711 c 0,0 2.18978,-3.45755 4.95583,-3.3423 2.76605,0.11526 5.9931,1.95928 9.1049,7.26087 3.1118,5.30159 3.27499,6.93329 3.27499,6.93329"
       id="path4429"
       inkscape:connector-curvature="0"
       sodipodi:nodetypes="cssc" />
    <path
       sodipodi:nodetypes="cssc"
       inkscape:connector-curvature="0"
       id="path828"
       d="m 406.30695,359.24711 c 0,0 -2.18978,-3.45755 -4.95583,-3.3423 -2.76605,0.11526 -5.9931,1.95928 -9.1049,7.26087 -3.1118,5.30159 -3.275,6.93329 -3.275,6.93329"
       style="fill:none;fill-rule:evenodd;stroke:#555555;stroke-width:3.66729403;stroke-linecap:round;stroke-linejoin:round;stroke-miterlimit:4;stroke-dasharray:none;stroke-opacity:1" />
    <circle
       style="fill:none;fill-opacity:1;stroke:#878787;stroke-width:3.66729403;stroke-linecap:round;stroke-linejoin:round;stroke-miterlimit:4;stroke-dasharray:none;stroke-dashoffset:0;stroke-opacity:1"
       id="path4136"
       cx="356.7131"
       cy="407.59268"
       r="49.229042" />
    <path
       style="fill:none;fill-rule:evenodd;stroke:#555555;stroke-width:3.05607843;stroke-linecap:round;stroke-linejoin:round;stroke-miterlimit:4;stroke-dasharray:none;stroke-opacity:1"
       d="m 341.40031,426.892 c 0,0 -12.78947,-6.89435 -28.58248,-6.79987 -23.93906,0.14322 -43.1384,5.50893 -43.1384,5.50893"
       id="path4449"
       inkscape:connector-curvature="0"
       sodipodi:nodetypes="csc" />
    <path
       style="fill:none;fill-rule:evenodd;stroke:#555555;stroke-width:3.05607843;stroke-linecap:round;stroke-linejoin:round;stroke-miterlimit:4;stroke-dasharray:none;stroke-opacity:1"
       d="m 329.56551,425.59627 c 0,0 -8.14609,-1.69475 -23.86873,1.01749 -11.84586,2.04348 -22.22526,7.84193 -22.22526,7.84193"
       id="path4453"
       inkscape:connector-curvature="0"
       sodipodi:nodetypes="csc" />
    <path
       style="fill:none;fill-rule:evenodd;stroke:#555555;stroke-width:3.05607843;stroke-linecap:round;stroke-linejoin:round;stroke-miterlimit:4;stroke-dasharray:none;stroke-opacity:1"
       d="m 339.5734,428.19357 c 0,0 -11.66283,0.005 -25.80462,4.09784 -14.1418,4.09249 -20.58808,10.83778 -20.58808,10.83778"
       id="path4455"
       inkscape:connector-curvature="0"
       sodipodi:nodetypes="csc" />
    <path
       sodipodi:nodetypes="csc"
       inkscape:connector-curvature="0"
       id="path4464"
       d="m 372.0259,426.892 c 0,0 12.78947,-6.89435 28.58248,-6.79987 23.93906,0.14322 43.1384,5.50893 43.1384,5.50893"
       style="fill:none;fill-rule:evenodd;stroke:#555555;stroke-width:3.05607843;stroke-linecap:round;stroke-linejoin:round;stroke-miterlimit:4;stroke-dasharray:none;stroke-opacity:1" />
    <path
       sodipodi:nodetypes="csc"
       inkscape:connector-curvature="0"
       id="path4466"
       d="m 383.8607,425.59627 c 0,0 8.14609,-1.69475 23.86873,1.01749 11.84586,2.04348 22.22526,7.84193 22.22526,7.84193"
       style="fill:none;fill-rule:evenodd;stroke:#555555;stroke-width:3.05607843;stroke-linecap:round;stroke-linejoin:round;stroke-miterlimit:4;stroke-dasharray:none;stroke-opacity:1" />
    <path
       sodipodi:nodetypes="csc"
       inkscape:connector-curvature="0"
       id="path4468"
       d="m 373.85282,428.19357 c 0,0 11.66282,0.005 25.80461,4.09784 14.1418,4.09249 20.58808,10.83778 20.58808,10.83778"
       style="fill:none;fill-rule:evenodd;stroke:#555555;stroke-width:3.05607843;stroke-linecap:round;stroke-linejoin:round;stroke-miterlimit:4;stroke-dasharray:none;stroke-opacity:1" />
    <path
       style="fill:url(#radialGradient844);fill-opacity:1;stroke:none;stroke-width:0.81495422;stroke-linecap:round;stroke-linejoin:round;stroke-miterlimit:4;stroke-dasharray:none;stroke-dashoffset:0;stroke-opacity:1"
       d="m 356.71368,366.59648 a 40.996759,40.996759 0 0 0 -40.99729,40.99602 40.996759,40.996759 0 0 0 40.99729,40.99729 40.996759,40.996759 0 0 0 40.99602,-40.99729 40.996759,40.996759 0 0 0 -40.99602,-40.99602 z m -8.40167,6.70936 c 0.49548,-0.0113 0.89827,0.0418 1.19315,0.15918 1.23289,0.49081 0.65475,1.96507 -1.27209,4.33326 -1.79312,2.20384 -5.2104,5.69447 -8.41823,9.0982 -0.53585,0.56235 -1.13223,1.18794 -1.67574,1.75725 l -0.0331,0.0357 c -2.74998,2.85115 -8.81379,9.29775 -10.29899,10.76121 -2.42515,2.36051 -3.95092,3.58185 -4.88718,3.16941 -0.87665,-0.38628 -1.1825,-2.40527 -0.46605,-5.43982 0.80014,-3.49956 2.82538,-8.02906 6.47761,-12.28671 l 0.0318,-0.0357 c 0.51526,-0.60602 1.05491,-1.19691 1.61717,-1.77125 3.4292,-3.54401 7.49853,-6.20315 11.19161,-7.88341 2.73485,-1.24429 5.05358,-1.86351 6.54001,-1.89732 z m 16.22906,0.64561 c 0.81971,0.005 1.81498,0.12989 2.95293,0.39855 3.49957,0.80014 8.02906,2.82666 12.28671,6.47889 l 0.0369,0.0306 c 0.60602,0.51526 1.19691,1.05491 1.77125,1.61717 3.54401,3.4292 6.20316,7.49853 7.88342,11.19161 1.65905,3.64646 2.20763,6.55489 1.73814,7.73443 -0.49081,1.23289 -1.96507,0.65474 -4.33327,-1.27209 -2.20383,-1.79313 -5.69574,-5.21168 -9.09947,-8.4195 -0.56235,-0.53585 -1.18666,-1.13224 -1.75597,-1.67575 l -0.0357,-0.0331 c -2.85116,-2.74997 -9.29903,-8.81378 -10.76249,-10.29898 -2.36051,-2.42515 -3.58058,-3.95093 -3.16814,-4.88718 0.24142,-0.54791 1.11942,-0.87303 2.48561,-0.86461 z m -6.45979,49.37094 c 1.05952,0.007 2.10859,0.0767 3.03571,0.27122 1.97962,0.41535 3.49024,1.38947 4.09769,3.19616 l 0.25594,1.31283 c 0.14658,2.04722 -0.734,4.4034 -2.38246,6.28789 -1.63475,1.8688 -3.74399,2.99005 -5.75689,3.23053 -0.52466,0.0627 -1.05363,0.0692 -1.59171,0.0191 -1.83903,-0.18303 -3.78033,-1.07265 -5.24627,-2.53909 -1.4615,-1.46202 -2.21584,-3.2702 -2.46396,-5.07564 -0.27995,-2.03699 0.075,-3.9292 1.34722,-5.06291 1.33903,-1.19325 3.3495,-1.37177 5.45383,-1.51658 0.0504,-0.003 0.10123,-0.007 0.15153,-0.0102 0.96979,-0.0623 2.03985,-0.1197 3.09937,-0.11333 z"
       id="path4138"
       inkscape:connector-curvature="0" />
  </g>
</svg>
